<?xml version="1.0" encoding="utf-8"?>
<!-- Generator: Adobe Illustrator 16.0.0, SVG Export Plug-In . SVG Version: 6.00 Build 0)  -->
<!DOCTYPE svg PUBLIC "-//W3C//DTD SVG 1.1//EN" "http://www.w3.org/Graphics/SVG/1.1/DTD/svg11.dtd">
<svg version="1.1" xmlns="http://www.w3.org/2000/svg" xmlns:xlink="http://www.w3.org/1999/xlink" x="0px" y="0px" width="283.1px"
	 height="203.9px" viewBox="0 0 283.1 203.9" style="enable-background:new 0 0 283.1 203.9;" xml:space="preserve">
<style type="text/css">
<![CDATA[
	.st0{opacity:0.65;clip-path:url(#SVGID_4_);}
	.st1{fill:none;stroke:#000000;stroke-width:0.4026;stroke-miterlimit:10;}
	.st2{clip-path:url(#SVGID_6_);fill:#68E45E;}
	.st3{fill:#E60012;}
	.st4{clip-path:url(#SVGID_8_);fill:#68E45E;}
	.st5{fill:none;stroke:#000000;stroke-width:1.0064;}
	.st6{clip-path:url(#SVGID_10_);fill:#BFBFBF;}
	.st7{clip-path:url(#SVGID_10_);fill:#C3BE12;}
	.st8{clip-path:url(#SVGID_10_);fill:#97FFFF;}
	.st9{opacity:0.5;clip-path:url(#SVGID_10_);fill:#FFFFFF;}
	.st10{clip-path:url(#SVGID_4_);}
	.st11{clip-path:url(#SVGID_6_);}
	.st12{clip-path:url(#SVGID_8_);}
	.st13{clip-path:url(#SVGID_10_);fill:#FFFFFF;}
	.st14{fill:none;stroke:#000000;stroke-width:1.0064;stroke-miterlimit:10;}
	.st15{clip-path:url(#SVGID_4_);fill:#EB6467;}
	.st16{fill:#FF9800;}
	.st17{fill:#FFCD00;}
	.st18{fill:#FFF100;}
	.st19{fill:#FFFFFF;}
	.st20{fill:none;}
	.st21{fill:#FFFFFF;stroke:#000000;stroke-width:0.4026;}
	.st22{fill:#9D9D9D;}
	.st23{clip-path:url(#SVGID_10_);fill:#00B8F4;}
	.st24{fill:#6BE01F;}
	.st25{fill:#FFFFFF;stroke:#000000;stroke-width:1.0064;stroke-miterlimit:10;}
	.st26{fill:#6E2036;}
	.st27{fill:#009925;}
	.st28{clip-path:url(#SVGID_4_);fill:#FFB41F;}
	.st29{clip-path:url(#SVGID_10_);}
	.st30{fill:none;stroke:#000000;stroke-width:0.3019;}
	.st31{fill:none;stroke:#000000;stroke-width:0.4026;}
	.st32{fill:none;stroke:#000000;stroke-width:0.7548;}
]]>
</style>
<g id="デバイス">
	<path class="st25" d="M125.8,148.5H73.5c-0.7,0-1.2,0.6-1.2,1.3v33.7c0,0.7,0.5,1.3,1.2,1.3h52.3c0.7,0,1.2-0.6,1.2-1.3v-33.7
		C127.1,149.1,126.5,148.5,125.8,148.5z"/>
	<path class="st25" d="M126.3,184.7h0.8l8.1,12.1c0,1.7-0.7,3.2-1.6,3.2H65.7c-0.9,0-1.6-1.4-1.6-3.2l8.1-12.1H73"/>
	<path class="st22" d="M154.5,132.9c0.3-0.3,0.3-0.9,0-1.3c-3.1-3.1-8.1-3.2-11.2-0.1c-0.2,0.2-0.3,0.4-0.3,0.6
		c0,0.2,0.1,0.5,0.3,0.6c0.3,0.3,0.9,0.3,1.2,0c2.4-2.4,6.3-2.4,8.7,0.1C153.6,133.3,154.2,133.3,154.5,132.9 M159.4,126.7
		c-2.8-2.9-6.6-4.5-10.6-4.5c-4,0-7.7,1.5-10.5,4.3c-0.2,0.2-0.3,0.4-0.3,0.6s0.1,0.5,0.3,0.6c0.3,0.3,0.9,0.3,1.2,0
		c2.5-2.5,5.8-3.8,9.3-3.8c3.5,0,6.8,1.4,9.3,4c0.3,0.3,0.9,0.3,1.2,0C159.8,127.6,159.8,127,159.4,126.7 M164.4,121.7
		c-4.2-4.2-9.7-6.5-15.5-6.6c-5.9,0-11.3,2.2-15.5,6.4c-0.2,0.2-0.3,0.4-0.3,0.6c0,0.2,0.1,0.5,0.3,0.6c0.3,0.3,0.9,0.3,1.2,0
		c3.8-3.8,8.8-5.9,14.2-5.9c5.4,0,10.5,2.2,14.3,6.1c0.3,0.3,0.9,0.3,1.2,0C164.7,122.6,164.7,122.1,164.4,121.7 M169.3,116.7
		c-11.4-11.5-29.7-11.6-40.9-0.3c-0.2,0.2-0.3,0.4-0.3,0.6c0,0.2,0.1,0.5,0.3,0.6c0.3,0.3,0.9,0.3,1.2,0
		c10.5-10.6,27.8-10.5,38.4,0.3c0.3,0.3,0.9,0.3,1.2,0C169.6,117.7,169.6,117.1,169.3,116.7"/>
	<path class="st14" d="M3.3,200c-1.5,0-2.8-1.3-2.8-2.8v-19c0-1.6,1.3-2.8,2.8-2.8h36.3c1.5,0,2.8,1.3,2.8,2.8v19
		c0,1.6-1.3,2.8-2.8,2.8H3.3z"/>
	<path class="st25" d="M3.3,200c-1.5,0-2.8-1.3-2.8-2.8v-19c0-1.6,1.3-2.8,2.8-2.8h36.3c1.5,0,2.8,1.3,2.8,2.8v19
		c0,1.6-1.3,2.8-2.8,2.8H3.3z"/>
	<path class="st1" d="M4.6,180c-0.5,0-0.9-0.4-0.9-0.9c0-0.5,0.4-0.9,0.9-0.9h4c0.5,0,0.9,0.4,0.9,0.9c0,0.5-0.4,0.9-0.9,0.9H4.6z"
		/>
	<path class="st1" d="M39.4,187.5c0,5.1-4.1,9.3-9.2,9.3c-5.1,0-9.2-4.2-9.2-9.3c0-5.2,4.1-9.3,9.2-9.3
		C35.3,178.2,39.4,182.4,39.4,187.5z"/>
	<path class="st1" d="M36.8,187.5c0,3.7-3,6.7-6.6,6.7c-3.6,0-6.6-3-6.6-6.7c0-3.7,3-6.7,6.6-6.7C33.8,180.9,36.8,183.8,36.8,187.5z
		"/>
	<path class="st1" d="M30.2,190.2c-1.5,0-2.6-1.2-2.6-2.7c0-1.5,1.2-2.7,2.6-2.7c1.5,0,2.6,1.2,2.6,2.7
		C32.8,189,31.7,190.2,30.2,190.2z"/>
	<path class="st1" d="M39.4,187.5c0,5.1-4.1,9.3-9.2,9.3c-5.1,0-9.2-4.2-9.2-9.3c0-5.2,4.1-9.3,9.2-9.3
		C35.3,178.2,39.4,182.4,39.4,187.5z"/>
	<path class="st1" d="M30.2,190.2c-1.5,0-2.6-1.2-2.6-2.7c0-1.5,1.2-2.7,2.6-2.7c1.5,0,2.6,1.2,2.6,2.7
		C32.8,189,31.7,190.2,30.2,190.2z"/>
	<path class="st19" d="M216,0.5H81.8c-1.1,0-2,0.9-2,2v79.2c0,1.1,0.9,2,2,2h56.3v2.6h-18.9l-5.7,8.9l0.1,2.4h70.6v-2.4l-5.7-8.9
		h-18.9h0v-2.6H216c1.1,0,2-0.9,2-2V2.5C217.9,1.4,217.1,0.5,216,0.5z"/>
	<polyline class="st5" points="159.7,86.3 178.6,86.3 184.2,95.2 184.2,97.6 113.6,97.6 113.5,95.2 119.2,86.3 138.1,86.3 	"/>
	<line class="st31" x1="113.6" y1="95.1" x2="184.1" y2="95.1"/>
	<path class="st5" d="M216,83.7c1.1,0,2-0.9,2-2V2.5c0-1.1-0.9-2-2-2H81.8c-1.1,0-2,0.9-2,2v79.2c0,1.1,0.9,2,2,2H216z"/>
	<polyline class="st32" points="138.1,83.7 138.1,90.5 159.7,90.5 159.7,83.7 	"/>
	<g>
		<defs>
			<rect id="SVGID_1_" x="87.1" y="6.7" width="123.6" height="70.1"/>
		</defs>
		<clipPath id="SVGID_2_">
			<use xlink:href="#SVGID_1_"  style="overflow:visible;"/>
		</clipPath>
	</g>
	<g>
		<path class="st19" d="M281.4,163h-51c-0.7,0-1.2,0.6-1.2,1.2v34.6c0,0.7,0.5,1.2,1.2,1.2h51c0.7,0,1.2-0.6,1.2-1.2v-34.6
			C282.6,163.6,282.1,163,281.4,163z"/>
	</g>
	<path class="st5" d="M281.4,163h-51c-0.7,0-1.2,0.6-1.2,1.2v34.6c0,0.7,0.5,1.2,1.2,1.2h51c0.7,0,1.2-0.6,1.2-1.2v-34.6
		C282.6,163.6,282.1,163,281.4,163z"/>
	<ellipse class="st30" cx="255.9" cy="197.6" rx="1.5" ry="1.5"/>
	<path class="st20" d="M201,176.5C201.1,176.5,201.1,176.5,201,176.5l0.1,21.6c0,0.1,0,0.1-0.1,0.1h-37.9c0,0-0.1,0-0.1-0.1v-21.5
		c0,0,0-0.1,0.1-0.1H201z"/>
	<path class="st1" d="M127.1,184.7h-0.8h0c0.5-0.2,0.8-0.6,0.8-1.2v-33.7c0-0.7-0.6-1.3-1.2-1.3H73.5c-0.7,0-1.2,0.6-1.2,1.3v33.7
		c0,0.5,0.3,1,0.8,1.2h0h-0.8l-8.1,12.1c0,1.7,0.7,3.2,1.6,3.2h67.8c0.9,0,1.6-1.4,1.6-3.2L127.1,184.7z"/>
	<path class="st1" d="M125.8,148.5H73.5c-0.7,0-1.2,0.6-1.2,1.3v33.7c0,0.7,0.5,1.3,1.2,1.3h52.3c0.7,0,1.2-0.6,1.2-1.3v-33.7
		C127.1,149.1,126.5,148.5,125.8,148.5z"/>
	<path class="st1" d="M126.3,184.7h0.8l8.1,12.1c0,1.7-0.7,3.2-1.6,3.2H65.7c-0.9,0-1.6-1.4-1.6-3.2l8.1-12.1H73"/>
	<polygon class="st1" points="127.6,191.8 71.7,191.8 72.5,190.7 126.9,190.7 	"/>
	<polygon class="st1" points="126.1,189.6 73.2,189.6 74,188.4 125.4,188.4 	"/>
	<polygon class="st1" points="124.6,187.4 74.7,187.4 75.5,186.2 123.9,186.2 	"/>
	<polygon class="st1" points="105.6,195.7 93.6,195.7 94.7,192.8 104.6,192.8 	"/>
	<line class="st1" x1="64.2" y1="196.9" x2="135.2" y2="196.9"/>
	<path class="st1" d="M127.1,184.7h-0.8h0c0.5-0.2,0.8-0.6,0.8-1.2v-33.7c0-0.7-0.6-1.3-1.2-1.3H73.5c-0.7,0-1.2,0.6-1.2,1.3v33.7
		c0,0.5,0.3,1,0.8,1.2h0h-0.8l-8.1,12.1c0,1.7,0.7,3.2,1.6,3.2h67.8c0.9,0,1.6-1.4,1.6-3.2L127.1,184.7z"/>
	<polygon class="st1" points="127.6,191.8 71.7,191.8 72.5,190.7 126.9,190.7 	"/>
	<polygon class="st1" points="126.1,189.6 73.2,189.6 74,188.4 125.4,188.4 	"/>
	<polygon class="st1" points="124.6,187.4 74.7,187.4 75.5,186.2 123.9,186.2 	"/>
	<polygon class="st1" points="105.6,195.7 93.6,195.7 94.7,192.8 104.6,192.8 	"/>
	<g>
		<path class="st19" d="M207.8,174.5c0.5,0,0.9,0.4,0.9,0.9v24.2c0,0.5-0.4,0.9-0.9,0.9h-46.6c-0.5,0-0.9-0.4-0.9-0.9v-24.2
			c0-0.5,0.4-0.9,0.9-0.9H207.8z"/>
		<g>
			<path class="st19" d="M207.8,174.5c0.5,0,0.9,0.4,0.9,0.9v24.2c0,0.5-0.4,0.9-0.9,0.9h-46.6c-0.5,0-0.9-0.4-0.9-0.9v-24.2
				c0-0.5,0.4-0.9,0.9-0.9H207.8z"/>
			<rect x="166.5" y="177.2" class="st19" width="34.3" height="20.6"/>
			<rect x="162.3" y="184.2" class="st19" width="1.2" height="6.8"/>
			<rect x="194.8" y="191.1" class="st19" width="4.5" height="4.5"/>
			<rect x="194.8" y="185.2" class="st19" width="4.5" height="4.5"/>
			<rect x="194.8" y="179.3" class="st19" width="4.5" height="4.5"/>
		</g>
	</g>
	<path class="st19" d="M207.8,174.5c0.5,0,0.9,0.4,0.9,0.9v24.2c0,0.5-0.4,0.9-0.9,0.9h-46.6c-0.5,0-0.9-0.4-0.9-0.9v-24.2
		c0-0.5,0.4-0.9,0.9-0.9H207.8z"/>
	<path class="st25" d="M207.8,174.5c0.5,0,0.9,0.4,0.9,0.9v24.2c0,0.5-0.4,0.9-0.9,0.9h-46.6c-0.5,0-0.9-0.4-0.9-0.9v-24.2
		c0-0.5,0.4-0.9,0.9-0.9H207.8z"/>
	<rect x="162.3" y="184.2" class="st21" width="1.2" height="6.8"/>
</g>
<g id="イラスト">
	<g>
		<defs>
			<rect id="SVGID_3_" x="232.5" y="166" width="46.8" height="29"/>
		</defs>
		<clipPath id="SVGID_4_">
			<use xlink:href="#SVGID_3_"  style="overflow:visible;"/>
		</clipPath>
		<rect x="231.2" y="166.1" class="st15" width="50" height="23.7"/>
		<g class="st10">
			<polygon class="st19" points="262.2,183 265.9,178.8 264,187.2 267.7,178 268.5,180.9 269,178.7 272.5,181.7 270.9,177.6 
				273.8,178.8 267.8,174.1 260.6,179.2 264,178 			"/>
			<polygon class="st26" points="273.8,178.8 270.9,177.6 272.5,181.7 269,178.7 268.5,180.9 267.7,178 264,187.2 265.9,178.8 
				262.2,183 264,178 260.6,179.2 250,186.6 240.7,183.1 231.2,187.8 231.2,195.4 281.2,195.4 281.2,184.5 			"/>
		</g>
		<circle class="st28" cx="245.9" cy="173.6" r="3.4"/>
		<g class="st0">
			<path class="st19" d="M289.5,185.9h-3.7c0.2-0.3,0.4-0.6,0.4-0.9c0-0.8-0.6-1.4-1.4-1.4h-16c-0.8,0-1.4,0.6-1.4,1.4
				c0,0.8,0.6,1.4,1.4,1.4h3.7c-0.2,0.3-0.4,0.6-0.4,0.9c0,0.8,0.6,1.4,1.4,1.4h16c0.8,0,1.4-0.6,1.4-1.4
				C290.9,186.6,290.3,185.9,289.5,185.9z"/>
			<path class="st19" d="M254.6,177.6h-6c0.1-0.2,0.1-0.3,0.1-0.5c0-0.8-0.6-1.4-1.4-1.4h-16c-0.8,0-1.4,0.6-1.4,1.4
				s0.6,1.4,1.4,1.4h6c-0.1,0.2-0.1,0.3-0.1,0.5c0,0.8,0.6,1.4,1.4,1.4h16c0.8,0,1.4-0.6,1.4-1.4S255.4,177.6,254.6,177.6z"/>
		</g>
	</g>
	<g>
		<defs>
			<rect id="SVGID_5_" x="166.5" y="177.2" width="34.3" height="20.6"/>
		</defs>
		<clipPath id="SVGID_6_">
			<use xlink:href="#SVGID_5_"  style="overflow:visible;"/>
		</clipPath>
		<rect x="166.5" y="176.9" class="st2" width="34.3" height="21.2"/>
		<g class="st11">
			<path class="st27" d="M185.3,196.7c2.3,2.3,2.8,5.5,2.8,5.5s-3.2-0.4-5.5-2.7c-2.3-2.3-2.8-5.5-2.8-5.5S183,194.5,185.3,196.7z"
				/>
			<path class="st27" d="M191.7,193.2c-2.9,2.8-3.7,6.7-3.7,6.7s3.9-0.7,6.8-3.5s3.7-6.7,3.7-6.7S194.6,190.4,191.7,193.2z"/>
			<rect x="187.8" y="190" class="st27" width="0.4" height="14.7"/>
			<g>
				<g>
					<g>
						<path class="st18" d="M189.1,180.1c0,2.4-1.1,4.4-1.1,4.4s-1.1-1.9-1.1-4.4s1.1-4.4,1.1-4.4S189.1,177.7,189.1,180.1z"/>
						<path class="st18" d="M189.1,193.1c0,2.4-1.1,4.4-1.1,4.4s-1.1-1.9-1.1-4.4s1.1-4.4,1.1-4.4S189.1,190.7,189.1,193.1z"/>
					</g>
					<g>
						<path class="st18" d="M185.7,180.4c1.2,2.1,1.2,4.3,1.2,4.3s-1.9-1.2-3.1-3.2c-1.2-2.1-1.2-4.3-1.2-4.3
							S184.5,178.3,185.7,180.4z"/>
						<path class="st18" d="M192.2,191.7c1.2,2.1,1.2,4.3,1.2,4.3s-1.9-1.2-3.1-3.2s-1.2-4.3-1.2-4.3S191,189.6,192.2,191.7z"/>
					</g>
					<g>
						<path class="st18" d="M182.9,182.4c2.1,1.2,3.2,3.1,3.2,3.1s-2.2,0-4.3-1.2c-2.1-1.2-3.2-3.1-3.2-3.1S180.8,181.2,182.9,182.4
							z"/>
						<path class="st18" d="M194.2,188.9c2.1,1.2,3.2,3.1,3.2,3.1s-2.2,0-4.3-1.2s-3.2-3.1-3.2-3.1S192.1,187.7,194.2,188.9z"/>
					</g>
					<g>
						<path class="st18" d="M181.5,185.5c2.4,0,4.4,1.1,4.4,1.1s-1.9,1.1-4.4,1.1c-2.4,0-4.4-1.1-4.4-1.1S179.1,185.5,181.5,185.5z"
							/>
						<path class="st18" d="M194.5,185.5c2.4,0,4.4,1.1,4.4,1.1s-1.9,1.1-4.4,1.1s-4.4-1.1-4.4-1.1S192.1,185.5,194.5,185.5z"/>
					</g>
					<g>
						<path class="st18" d="M181.8,188.9c2.1-1.2,4.3-1.2,4.3-1.2s-1.2,1.9-3.2,3.1s-4.3,1.2-4.3,1.2S179.7,190.1,181.8,188.9z"/>
						<path class="st18" d="M193.1,182.4c2.1-1.2,4.3-1.2,4.3-1.2s-1.2,1.9-3.2,3.1c-2.1,1.2-4.3,1.2-4.3,1.2S191,183.6,193.1,182.4
							z"/>
					</g>
					<g>
						<path class="st18" d="M183.8,191.7c1.2-2.1,3.1-3.2,3.1-3.2s0,2.2-1.2,4.3c-1.2,2.1-3.1,3.2-3.1,3.2S182.6,193.8,183.8,191.7z
							"/>
						<path class="st18" d="M190.3,180.4c1.2-2.1,3.1-3.2,3.1-3.2s0,2.2-1.2,4.3c-1.2,2.1-3.1,3.2-3.1,3.2S189.1,182.5,190.3,180.4z
							"/>
					</g>
					<circle class="st17" cx="188" cy="186.8" r="4.4"/>
					<circle class="st18" cx="188" cy="186.8" r="3.2"/>
				</g>
				<g>
					<circle class="st17" cx="185.7" cy="184.6" r="0.6"/>
					<circle class="st17" cx="187.3" cy="184.6" r="0.6"/>
					<circle class="st17" cx="188.8" cy="184.6" r="0.6"/>
					<circle class="st17" cx="190.3" cy="184.6" r="0.6"/>
				</g>
				<g>
					<circle class="st17" cx="185.7" cy="186.1" r="0.6"/>
					<circle class="st17" cx="187.3" cy="186.1" r="0.6"/>
					<circle class="st17" cx="188.8" cy="186.1" r="0.6"/>
					<circle class="st17" cx="190.3" cy="186.1" r="0.6"/>
				</g>
				<g>
					<circle class="st17" cx="185.7" cy="187.5" r="0.6"/>
					<circle class="st17" cx="187.3" cy="187.5" r="0.6"/>
					<circle class="st17" cx="188.8" cy="187.5" r="0.6"/>
					<circle class="st17" cx="190.3" cy="187.5" r="0.6"/>
				</g>
				<g>
					<circle class="st17" cx="185.7" cy="188.9" r="0.6"/>
					<circle class="st17" cx="187.3" cy="188.9" r="0.6"/>
					<circle class="st17" cx="188.8" cy="188.9" r="0.6"/>
					<circle class="st17" cx="190.3" cy="188.9" r="0.6"/>
				</g>
			</g>
		</g>
		<g class="st11">
			<path class="st27" d="M172.6,198.1c1.4,1.3,1.7,3.3,1.7,3.3s-1.9-0.3-3.3-1.6c-1.4-1.3-1.7-3.3-1.7-3.3S171.2,196.7,172.6,198.1z
				"/>
			<path class="st27" d="M176,196.8c-1.4,1.3-1.8,3.2-1.8,3.2s1.9-0.3,3.2-1.7c1.4-1.3,1.8-3.2,1.8-3.2S177.4,195.5,176,196.8z"/>
			<rect x="174.1" y="194.1" class="st27" width="0.3" height="8.8"/>
			<g>
				<g>
					<g>
						<path class="st18" d="M174.9,188.2c0,1.4-0.6,2.6-0.6,2.6s-0.6-1.2-0.6-2.6c0-1.4,0.6-2.6,0.6-2.6S174.9,186.7,174.9,188.2z"
							/>
						<path class="st18" d="M174.9,196c0,1.4-0.6,2.6-0.6,2.6s-0.6-1.2-0.6-2.6c0-1.4,0.6-2.6,0.6-2.6S174.9,194.5,174.9,196z"/>
					</g>
					<g>
						<path class="st18" d="M172.8,188.4c0.7,1.2,0.7,2.6,0.7,2.6s-1.1-0.7-1.9-1.9c-0.7-1.2-0.7-2.6-0.7-2.6
							S172.1,187.1,172.8,188.4z"/>
						<path class="st18" d="M176.7,195.1c0.7,1.2,0.7,2.6,0.7,2.6s-1.1-0.7-1.9-1.9c-0.7-1.2-0.7-2.6-0.7-2.6S176,193.9,176.7,195.1
							z"/>
					</g>
					<g>
						<path class="st18" d="M171.2,189.6c1.2,0.7,1.9,1.9,1.9,1.9s-1.3,0-2.6-0.7c-1.2-0.7-1.9-1.9-1.9-1.9S169.9,188.8,171.2,189.6
							z"/>
						<path class="st18" d="M177.9,193.4c1.2,0.7,1.9,1.9,1.9,1.9s-1.3,0-2.6-0.7s-1.9-1.9-1.9-1.9S176.7,192.7,177.9,193.4z"/>
					</g>
					<g>
						<path class="st18" d="M170.3,191.4c1.4,0,2.6,0.6,2.6,0.6s-1.2,0.6-2.6,0.6c-1.4,0-2.6-0.6-2.6-0.6S168.9,191.4,170.3,191.4z"
							/>
						<path class="st18" d="M178.1,191.4c1.4,0,2.6,0.6,2.6,0.6s-1.2,0.6-2.6,0.6s-2.6-0.6-2.6-0.6S176.7,191.4,178.1,191.4z"/>
					</g>
					<g>
						<path class="st18" d="M170.5,193.4c1.2-0.7,2.6-0.7,2.6-0.7s-0.7,1.1-1.9,1.9c-1.2,0.7-2.6,0.7-2.6,0.7
							S169.3,194.2,170.5,193.4z"/>
						<path class="st18" d="M177.3,189.6c1.2-0.7,2.6-0.7,2.6-0.7s-0.7,1.1-1.9,1.9c-1.2,0.7-2.6,0.7-2.6,0.7S176,190.3,177.3,189.6
							z"/>
					</g>
					<g>
						<path class="st18" d="M171.7,195.1c0.7-1.2,1.9-1.9,1.9-1.9s0,1.3-0.7,2.6s-1.9,1.9-1.9,1.9S171,196.4,171.7,195.1z"/>
						<path class="st18" d="M175.6,188.4c0.7-1.2,1.9-1.9,1.9-1.9s0,1.3-0.7,2.6c-0.7,1.2-1.9,1.9-1.9,1.9S174.9,189.6,175.6,188.4z
							"/>
					</g>
					<circle class="st17" cx="174.2" cy="192.2" r="2.6"/>
					<circle class="st18" cx="174.2" cy="192.2" r="1.9"/>
				</g>
				<g>
					<circle class="st17" cx="172.9" cy="190.9" r="0.3"/>
					<circle class="st17" cx="173.8" cy="190.9" r="0.3"/>
					<circle class="st17" cx="174.7" cy="190.9" r="0.3"/>
					<circle class="st17" cx="175.6" cy="190.9" r="0.3"/>
				</g>
				<g>
					<circle class="st17" cx="172.9" cy="191.7" r="0.3"/>
					<circle class="st17" cx="173.8" cy="191.7" r="0.3"/>
					<circle class="st17" cx="174.7" cy="191.7" r="0.3"/>
					<circle class="st17" cx="175.6" cy="191.7" r="0.3"/>
				</g>
				<g>
					<circle class="st17" cx="172.9" cy="192.6" r="0.3"/>
					<circle class="st17" cx="173.8" cy="192.6" r="0.3"/>
					<circle class="st17" cx="174.7" cy="192.6" r="0.3"/>
					<circle class="st17" cx="175.6" cy="192.6" r="0.3"/>
				</g>
				<g>
					<circle class="st17" cx="172.9" cy="193.4" r="0.3"/>
					<circle class="st17" cx="173.8" cy="193.4" r="0.3"/>
					<circle class="st17" cx="174.7" cy="193.4" r="0.3"/>
					<circle class="st17" cx="175.6" cy="193.4" r="0.3"/>
				</g>
			</g>
		</g>
	</g>
	<g>
		<defs>
			<rect id="SVGID_7_" x="86.9" y="6.7" width="123.1" height="70.1"/>
		</defs>
		<clipPath id="SVGID_8_">
			<use xlink:href="#SVGID_7_"  style="overflow:visible;"/>
		</clipPath>
		<rect x="86.9" y="3.3" class="st4" width="123.1" height="76.2"/>
		<g class="st12">
			<path class="st27" d="M154.3,74.5c8.3,8.1,10.2,19.6,10.2,19.6s-11.6-1.6-19.9-9.7s-10.2-19.6-10.2-19.6S146,66.4,154.3,74.5z"/>
			<path class="st27" d="M177.5,61.9C167.1,72,164.2,86,164.2,86s14-2.5,24.4-12.7c10.4-10.2,13.3-24.1,13.3-24.1
				S187.9,51.7,177.5,61.9z"/>
			<rect x="163.3" y="50.2" class="st27" width="1.5" height="52.9"/>
			<g>
				<g>
					<g>
						<path class="st18" d="M167.9,14.7c0,8.6-3.8,15.6-3.8,15.6s-3.8-7-3.8-15.6S164-0.9,164-0.9S167.9,6.1,167.9,14.7z"/>
						<path class="st18" d="M167.9,61.6c0,8.6-3.8,15.6-3.8,15.6s-3.8-7-3.8-15.6C160.2,53,164,46,164,46S167.9,53,167.9,61.6z"/>
					</g>
					<g>
						<path class="st18" d="M155.6,15.9c4.3,7.5,4.5,15.5,4.5,15.5s-6.8-4.1-11.1-11.6c-4.3-7.5-4.5-15.5-4.5-15.5
							S151.3,8.5,155.6,15.9z"/>
						<path class="st18" d="M179.1,56.6c4.3,7.5,4.5,15.5,4.5,15.5s-6.8-4.1-11.1-11.6S167.9,45,167.9,45S174.8,49.1,179.1,56.6z"/>
					</g>
					<g>
						<path class="st18" d="M145.6,23.1c7.5,4.3,11.6,11.1,11.6,11.1s-8-0.2-15.5-4.5s-11.6-11.1-11.6-11.1S138.2,18.8,145.6,23.1z"
							/>
						<path class="st18" d="M186.3,46.6c7.5,4.3,11.6,11.1,11.6,11.1s-8-0.2-15.5-4.5c-7.5-4.3-11.6-11.1-11.6-11.1
							S178.8,42.3,186.3,46.6z"/>
					</g>
					<g>
						<path class="st18" d="M140.6,34.3c8.6,0,15.6,3.8,15.6,3.8s-7,3.8-15.6,3.8S125,38.2,125,38.2S131.9,34.3,140.6,34.3z"/>
						<path class="st18" d="M187.5,34.3c8.6,0,15.6,3.8,15.6,3.8s-7,3.8-15.6,3.8c-8.6,0-15.6-3.8-15.6-3.8S178.9,34.3,187.5,34.3z"
							/>
					</g>
					<g>
						<path class="st18" d="M141.8,46.6c7.5-4.3,15.5-4.5,15.5-4.5s-4.1,6.8-11.6,11.1c-7.5,4.3-15.5,4.5-15.5,4.5
							S134.3,50.9,141.8,46.6z"/>
						<path class="st18" d="M182.4,23.1c7.5-4.3,15.5-4.5,15.5-4.5s-4.1,6.8-11.6,11.1s-15.5,4.5-15.5,4.5S174.9,27.4,182.4,23.1z"
							/>
					</g>
					<g>
						<path class="st18" d="M149,56.6c4.3-7.5,11.1-11.6,11.1-11.6s-0.2,8-4.5,15.5S144.5,72,144.5,72S144.7,64,149,56.6z"/>
						<path class="st18" d="M172.4,15.9c4.3-7.5,11.1-11.6,11.1-11.6s-0.2,8-4.5,15.5c-4.3,7.5-11.1,11.6-11.1,11.6
							S168.1,23.4,172.4,15.9z"/>
					</g>
					<circle class="st17" cx="164" cy="38.8" r="15.6"/>
					<circle class="st18" cx="164" cy="38.8" r="11.6"/>
				</g>
				<g>
					<circle class="st17" cx="156" cy="31.1" r="2"/>
					<circle class="st17" cx="161.4" cy="31.1" r="2"/>
					<circle class="st17" cx="166.8" cy="31.1" r="2"/>
					<circle class="st17" cx="172.2" cy="31.1" r="2"/>
				</g>
				<g>
					<circle class="st17" cx="156" cy="36.2" r="2"/>
					<circle class="st17" cx="161.4" cy="36.2" r="2"/>
					<circle class="st17" cx="166.8" cy="36.2" r="2"/>
					<circle class="st17" cx="172.2" cy="36.2" r="2"/>
				</g>
				<g>
					<circle class="st17" cx="156" cy="41.3" r="2"/>
					<circle class="st17" cx="161.4" cy="41.3" r="2"/>
					<circle class="st17" cx="166.8" cy="41.3" r="2"/>
					<circle class="st17" cx="172.2" cy="41.3" r="2"/>
				</g>
				<g>
					<circle class="st17" cx="156" cy="46.4" r="2"/>
					<circle class="st17" cx="161.4" cy="46.4" r="2"/>
					<circle class="st17" cx="166.8" cy="46.4" r="2"/>
					<circle class="st17" cx="172.2" cy="46.4" r="2"/>
				</g>
			</g>
		</g>
		<g class="st12">
			<path class="st27" d="M108.8,79.4c4.9,4.8,6.1,11.7,6.1,11.7s-6.9-0.9-11.9-5.8S97,73.6,97,73.6S103.9,74.6,108.8,79.4z"/>
			<path class="st27" d="M121,74.8c-4.9,4.8-6.3,11.5-6.3,11.5s6.7-1.2,11.6-6c4.9-4.8,6.3-11.5,6.3-11.5S126,70,121,74.8z"/>
			<rect x="114.2" y="64.9" class="st27" width="0.9" height="31.6"/>
			<g>
				<g>
					<g>
						<path class="st18" d="M116.9,43.7c0,5.1-2.3,9.3-2.3,9.3s-2.3-4.2-2.3-9.3c0-5.1,2.3-9.3,2.3-9.3S116.9,38.6,116.9,43.7z"/>
						<path class="st18" d="M116.9,71.7c0,5.1-2.3,9.3-2.3,9.3s-2.3-4.2-2.3-9.3c0-5.1,2.3-9.3,2.3-9.3S116.9,66.6,116.9,71.7z"/>
					</g>
					<g>
						<path class="st18" d="M109.6,44.5c2.6,4.5,2.7,9.2,2.7,9.2s-4.1-2.5-6.6-6.9c-2.6-4.5-2.7-9.2-2.7-9.2S107,40,109.6,44.5z"/>
						<path class="st18" d="M123.6,68.7c2.6,4.5,2.7,9.2,2.7,9.2s-4.1-2.5-6.6-6.9c-2.6-4.5-2.7-9.2-2.7-9.2S121,64.3,123.6,68.7z"
							/>
					</g>
					<g>
						<path class="st18" d="M103.7,48.8c4.5,2.6,6.9,6.6,6.9,6.6s-4.8-0.1-9.2-2.7c-4.5-2.6-6.9-6.6-6.9-6.6S99.2,46.2,103.7,48.8z"
							/>
						<path class="st18" d="M127.9,62.7c4.5,2.6,6.9,6.6,6.9,6.6s-4.8-0.1-9.2-2.7c-4.5-2.6-6.9-6.6-6.9-6.6S123.4,60.2,127.9,62.7z
							"/>
					</g>
					<g>
						<path class="st18" d="M100.6,55.4c5.1,0,9.3,2.3,9.3,2.3s-4.2,2.3-9.3,2.3s-9.3-2.3-9.3-2.3S95.5,55.4,100.6,55.4z"/>
						<path class="st18" d="M128.6,55.4c5.1,0,9.3,2.3,9.3,2.3s-4.2,2.3-9.3,2.3s-9.3-2.3-9.3-2.3S123.5,55.4,128.6,55.4z"/>
					</g>
					<g>
						<path class="st18" d="M101.4,62.7c4.5-2.6,9.2-2.7,9.2-2.7s-2.5,4.1-6.9,6.6s-9.2,2.7-9.2,2.7S96.9,65.3,101.4,62.7z"/>
						<path class="st18" d="M125.6,48.8c4.5-2.6,9.2-2.7,9.2-2.7s-2.5,4.1-6.9,6.6c-4.5,2.6-9.2,2.7-9.2,2.7S121.1,51.3,125.6,48.8z
							"/>
					</g>
					<g>
						<path class="st18" d="M105.6,68.7c2.6-4.5,6.6-6.9,6.6-6.9s-0.1,4.8-2.7,9.2c-2.6,4.5-6.6,6.9-6.6,6.9S103.1,73.2,105.6,68.7z
							"/>
						<path class="st18" d="M119.6,44.5c2.6-4.5,6.6-6.9,6.6-6.9s-0.1,4.8-2.7,9.2c-2.6,4.5-6.6,6.9-6.6,6.9S117.1,48.9,119.6,44.5z
							"/>
					</g>
					<circle class="st17" cx="114.6" cy="58.1" r="9.3"/>
					<circle class="st18" cx="114.6" cy="58.1" r="6.9"/>
				</g>
				<g>
					<circle class="st17" cx="109.8" cy="53.5" r="1.2"/>
					<circle class="st17" cx="113.1" cy="53.5" r="1.2"/>
					<circle class="st17" cx="116.3" cy="53.5" r="1.2"/>
					<circle class="st17" cx="119.5" cy="53.5" r="1.2"/>
				</g>
				<g>
					<circle class="st17" cx="109.8" cy="56.6" r="1.2"/>
					<circle class="st17" cx="113.1" cy="56.6" r="1.2"/>
					<circle class="st17" cx="116.3" cy="56.6" r="1.2"/>
					<circle class="st17" cx="119.5" cy="56.6" r="1.2"/>
				</g>
				<g>
					<circle class="st17" cx="109.8" cy="59.6" r="1.2"/>
					<circle class="st17" cx="113.1" cy="59.6" r="1.2"/>
					<circle class="st17" cx="116.3" cy="59.6" r="1.2"/>
					<circle class="st17" cx="119.5" cy="59.6" r="1.2"/>
				</g>
				<g>
					<circle class="st17" cx="109.8" cy="62.7" r="1.2"/>
					<circle class="st17" cx="113.1" cy="62.7" r="1.2"/>
					<circle class="st17" cx="116.3" cy="62.7" r="1.2"/>
					<circle class="st17" cx="119.5" cy="62.7" r="1.2"/>
				</g>
			</g>
		</g>
	</g>
	<g>
		<defs>
			<rect id="SVGID_9_" x="75.5" y="151.5" width="48.2" height="28.1"/>
		</defs>
		<clipPath id="SVGID_10_">
			<use xlink:href="#SVGID_9_"  style="overflow:visible;"/>
		</clipPath>
		<rect x="74.4" y="150.8" class="st8" width="50.1" height="17.1"/>
		<rect x="74.4" y="166.6" class="st23" width="50.1" height="14.5"/>
		<polygon class="st7" points="109.3,167.3 112.1,165.2 113.8,165.9 115.8,164.8 118.1,164.8 118.6,166.1 120.9,165.9 122.8,165.9 
			124.6,165.9 124.6,169 118.5,169 110.8,168.3 112.1,167.2 		"/>
		<g class="st29">
			<polygon class="st3" points="92.2,163 92.2,170.8 95.9,167.9 			"/>
			<polygon class="st19" points="89.2,170.8 95,170.8 95,171.6 90.3,171.6 			"/>
		</g>
		<g class="st29">
			<polygon class="st16" points="81.6,165.2 81.6,168.6 83.2,167.3 			"/>
			<polygon class="st19" points="80.3,168.6 82.8,168.6 82.8,169 80.8,169 			"/>
		</g>
		<g class="st29">
			<polygon class="st24" points="99.7,164.6 99.7,169.6 102.1,167.7 			"/>
			<polygon class="st19" points="97.9,169.6 101.5,169.6 101.5,170.1 98.6,170.1 			"/>
		</g>
		<path class="st9" d="M77.2,173.8c0.8,0.6,1.8,0.9,2.8,0.7c0.5-0.1,0.9-0.2,1.4-0.4c0.4-0.2,1-0.4,1.5-0.2c1,0.4,1.5,1.4,2.4,1.8
			c0.9,0.4,1.9,0.2,2.8-0.1c0.9-0.2,2-0.5,3-0.3c1,0.2,1.9,0.7,2.8,1.2c0.9,0.4,1.8,0.9,2.7,0.8c0.9,0,1.7-0.7,2.5-1.3
			c0.8-0.6,1.8-1.1,2.8-1.1c1,0,2,0.2,3,0.6c0.9,0.3,1.9,0.6,2.6,0c0.4-0.3,0.7-0.7,1.3-0.9c0.5-0.2,1.1-0.2,1.6,0
			c1,0.2,1.9,0.7,2.8,0.9c0.5,0.1,1,0.1,1.4,0c0.4-0.1,0.8-0.5,1.2-0.8c0.5-0.3,1-0.2,1.5-0.1c0.5,0.2,0.9,0.4,1.4,0.5
			c0.9,0.3,2,0.3,2.9,0c-0.9,0.3-2,0.4-2.9,0.1c-0.5-0.1-0.9-0.3-1.4-0.5c-0.5-0.1-1-0.2-1.4,0.1c-0.4,0.2-0.7,0.7-1.2,0.8
			c-0.5,0.2-1,0.2-1.5,0.1c-1-0.2-1.9-0.7-2.8-0.8c-0.5-0.1-0.9-0.1-1.4,0.1c-0.4,0.1-0.8,0.5-1.2,0.8c-0.4,0.3-1,0.5-1.5,0.5
			c-0.5,0-1-0.2-1.5-0.4c-0.9-0.4-1.9-0.6-2.8-0.6c-1,0-1.8,0.4-2.6,1.1c-0.4,0.3-0.8,0.6-1.2,0.9c-0.4,0.3-1,0.5-1.5,0.5
			c-1.1,0.1-2-0.4-2.9-0.9c-0.9-0.5-1.7-1-2.7-1.2c-0.9-0.2-1.9,0-2.8,0.2c-0.9,0.2-2,0.4-3,0c-1-0.4-1.5-1.4-2.3-1.8
			c-0.4-0.2-0.9,0-1.4,0.1c-0.4,0.2-0.9,0.4-1.4,0.4C79,174.8,78,174.4,77.2,173.8z"/>
		<path class="st9" d="M79.1,172.3c0.8,0.3,1.7,0.4,2.5,0.3c0.9,0,1.7-0.5,2.6-0.3c0.9,0.1,1.6,0.8,2.4,0.8c0.8,0.1,1.7,0,2.5-0.1
			c3.5-0.9,6.9,2.1,10.1,0.1c1.7-0.7,3.5-0.5,5.2-0.1c0.8,0.2,1.7,0.3,2.5,0c0.4-0.2,0.8-0.3,1.3-0.4c0.5-0.1,0.9,0,1.3,0
			c0.9,0.1,1.7,0.3,2.6,0.4c0.4,0,0.8,0,1.3,0c0.4-0.1,0.8-0.3,1.2-0.4c0.9-0.2,1.8,0.2,2.6,0.3c0.9,0.1,1.7,0.1,2.6,0
			c-0.9,0.2-1.7,0.2-2.6,0.1c-0.9-0.1-1.7-0.4-2.5-0.2c-0.4,0.1-0.8,0.3-1.2,0.4c-0.4,0.1-0.9,0.1-1.3,0.1c-0.9-0.1-1.7-0.3-2.6-0.4
			c-0.9-0.1-1.7,0-2.4,0.4c-0.9,0.4-1.8,0.2-2.7,0.1c-1.7-0.3-3.4-0.5-5,0.2c-0.8,0.3-1.6,0.7-2.6,0.7c-0.9,0-1.8-0.2-2.6-0.4
			c-0.8-0.2-1.7-0.5-2.5-0.6c-0.8-0.1-1.7,0-2.5,0.1c-0.9,0.1-1.7,0.2-2.6,0c-0.9-0.1-1.6-0.8-2.4-0.9c-0.8-0.2-1.7,0.3-2.5,0.2
			C80.8,172.8,79.9,172.6,79.1,172.3z"/>
		<circle class="st13" cx="110.1" cy="154.9" r="3.4"/>
		<path class="st13" d="M117.7,162.1h-1.3V162c0-0.4,0.3-0.7,0.7-0.7l0,0c0.4,0,0.7,0.3,0.7,0.7V162.1z"/>
		<polygon class="st13" points="117.8,164.9 116.2,164.9 116.3,162.4 117.7,162.4 		"/>
		<rect x="116.2" y="162" class="st6" width="1.5" height="0.4"/>
	</g>
</g>
<g id="デバイス画面枠">
	<rect x="75.5" y="151.5" class="st1" width="48.3" height="28.2"/>
	<rect x="232.5" y="166" class="st1" width="46.8" height="29"/>
	<rect x="86.9" y="6.7" class="st1" width="123.6" height="70.1"/>
	<rect x="166.5" y="177.2" class="st31" width="34.3" height="20.6"/>
</g>
</svg>
